<?xml version="1.0" encoding="UTF-8" standalone="no"?>
<svg
   xmlns:dc="http://purl.org/dc/elements/1.1/"
   xmlns:cc="http://creativecommons.org/ns#"
   xmlns:rdf="http://www.w3.org/1999/02/22-rdf-syntax-ns#"
   xmlns:svg="http://www.w3.org/2000/svg"
   xmlns="http://www.w3.org/2000/svg"
   xmlns:sodipodi="http://sodipodi.sourceforge.net/DTD/sodipodi-0.dtd"
   xmlns:inkscape="http://www.inkscape.org/namespaces/inkscape"
   width="74.728668mm"
   height="108.85223mm"
   viewBox="0 0 74.728668 108.85223"
   version="1.1"
   id="svg5"
   xml:space="preserve"
   inkscape:version="1.0.2 (e86c870879, 2021-01-15)"
   sodipodi:docname="logo-ant.svg"
   inkscape:export-filename="logo-ant.svg.png"
   inkscape:export-xdpi="17.959597"
   inkscape:export-ydpi="17.959597"><metadata
     id="metadata20"><rdf:RDF><cc:Work
         rdf:about=""><dc:format>image/svg+xml</dc:format><dc:type
           rdf:resource="http://purl.org/dc/dcmitype/StillImage" /></cc:Work></rdf:RDF></metadata><sodipodi:namedview
     id="namedview7"
     pagecolor="#505050"
     bordercolor="#eeeeee"
     borderopacity="1"
     inkscape:showpageshadow="0"
     inkscape:pageopacity="0"
     inkscape:pagecheckerboard="0"
     inkscape:deskcolor="#505050"
     inkscape:document-units="mm"
     showgrid="false"
     inkscape:zoom="0.67780272"
     inkscape:cx="67.683304"
     inkscape:cy="223.36875"
     inkscape:window-width="1366"
     inkscape:window-height="717"
     inkscape:window-x="0"
     inkscape:window-y="27"
     inkscape:window-maximized="1"
     inkscape:current-layer="layer1"
     inkscape:document-rotation="0" /><defs
     id="defs2"><inkscape:path-effect
       effect="powermask"
       id="path-effect961"
       is_visible="true"
       lpeversion="1"
       uri="#mask-powermask-path-effect961"
       invert="false"
       hide_mask="false"
       background="true"
       background_color="#ffffffff" /><inkscape:path-effect
       effect="powermask"
       id="path-effect930"
       is_visible="true"
       lpeversion="1"
       uri="#mask-powermask-path-effect930"
       invert="false"
       hide_mask="false"
       background="true"
       background_color="#ffffffff" /></defs><g
     inkscape:groupmode="layer"
     id="layer2"
     inkscape:label="back"
     style="display:inline" /><g
     inkscape:label="front"
     inkscape:groupmode="layer"
     id="layer1"
     transform="translate(-63.840505,-81.345853)"><g
       id="g1039"
       transform="matrix(1.0823656,0,0,1.1631032,129.82996,0.33338193)"><g
         id="g1024"><path
           d="m -43.688754,80.197971 c 0.488264,-0.10998 1.003957,0.10997 1.146601,0.48641 0.142636,0.37643 -0.142635,0.77402 -0.630908,0.88399 -2.117649,0.47372 -3.790914,1.18853 -4.970435,2.17827 -1.157571,0.96859 -1.848828,2.22479 -2.029872,3.79398 -0.04393,0.39336 -0.493744,0.68521 -1.003957,0.65137 -0.510212,-0.0338 -0.888759,-0.38067 -0.844862,-0.77403 0.213954,-1.8991 1.075275,-3.43446 2.512647,-4.63992 1.415422,-1.18006 3.379457,-2.03022 5.820786,-2.58007 z m 1.17952,34.353159 H -10.9914 l 3.47822,-16.787459 v 0 c 0.055,-0.26223 0.29624,-0.49063 0.64735,-0.571 7.8726,-1.84835 11.45505,-5.31666 12.12984,-8.85687 0.32917,-1.71301 -0.0166,-3.44716 -0.87777,-5.03328 -0.86681,-1.59457 -2.25481,-3.03265 -4.00488,-4.12813 -3.61536,-2.27132 -8.79977,-3.096098 -14.17069,-0.89246 l -0.005,0.004 c -0.44446,0.19457 -1.00953,0.0761 -1.2619,-0.26647 -1.41542,-1.911799 -3.12161,-3.324503 -4.97044,-4.280396 -2.02987,-1.053183 -4.24627,-1.556512 -6.45169,-1.58189 -2.22188,-0.02961 -4.43828,0.435655 -6.46267,1.328111 -1.99694,0.87976 -3.80737,2.174033 -5.24473,3.827825 v 0 c -0.21946,0.24955 -0.630912,0.37644 -1.025919,0.28762 -5.793356,-1.29427 -10.983234,0.2284 -14.241995,2.94806 -1.305706,1.08702 -2.304183,2.3686 -2.907653,3.739 -0.59799,1.35772 -0.806463,2.80002 -0.537642,4.22542 0.61993,3.29489 3.818352,6.51365 10.665044,8.38738 v 0 c 0.31819,0.0846 0.559582,0.30031 0.60896,0.57523 z m -4.882657,-16.453319 c -7.230729,-2.10213 -10.654075,-5.68463 -11.350812,-9.38134 -0.312709,-1.64957 -0.07129,-3.32027 0.61993,-4.88524 0.685767,-1.55228 1.821399,-3.01151 3.30814,-4.25079 3.57696,-2.9819 9.183784,-4.69491 15.470894,-3.485229 1.536119,-1.641105 3.423359,-2.943838 5.486139,-3.853205 2.30417,-1.015117 4.84426,-1.543823 7.3953,-1.518445 2.55654,0.02538 5.11857,0.60907 7.46114,1.82298 1.88724,0.977041 3.62634,2.355908 5.10211,4.178889 5.85371,-2.140205 11.4715,-1.158926 15.44895,1.33656 1.99147,1.24775 3.56598,2.88039 4.54801,4.68222 0.9875,1.81452 1.38251,3.81513 1.00397,5.79461 -0.7571,3.95895 -4.57545,7.80792 -12.87048,9.88044 l -4.90461,23.673319 c -0.0713,0.35107 -0.46631,0.60061 -0.91618,0.60061 v 0.005 h -30.491928 c -0.488264,0 -0.89424,-0.29184 -0.927159,-0.66404 z m 6.561411,2.563169 c -0.07682,-0.38913 0.274311,-0.752879 0.784515,-0.812079 0.504723,-0.055 0.976537,0.211469 1.053344,0.604829 l 1.909171,9.80009 c 0.0768,0.38912 -0.27431,0.75287 -0.78452,0.81209 -0.50472,0.0591 -0.976526,-0.21148 -1.053333,-0.60485 z"
           id="path947"
           style="display:inline;mix-blend-mode:normal;fill:#000000;fill-opacity:1;stroke:#000000;stroke-width:0.481709;stroke-opacity:1" /><rect
           style="display:inline;fill:#ffffff;fill-opacity:1;stroke:#ffffff;stroke-width:0.264583;stroke-opacity:1"
           id="rect1016"
           width="11.99088"
           height="21.757498"
           x="-105.99969"
           y="11.079646"
           transform="translate(63.840505,81.345853)" /><path
           style="fill:#ffffff;fill-opacity:1;stroke:#ffffff;stroke-width:1.47536;stroke-opacity:1"
           d="m -400.62876,124.1089 c 0,-0.22607 -2.65564,-14.97908 -5.90142,-32.784468 -3.24579,-17.805386 -5.90143,-32.469438 -5.90143,-32.586782 0,-0.117342 -4.14943,-1.714004 -9.22097,-3.548137 -21.82543,-7.89322 -33.64104,-19.707522 -33.53193,-33.528244 0.0865,-10.959565 11.16812,-24.0820866 26.34693,-31.1992755 7.52207,-3.5270185 9.94295,-3.8878055 26.08724,-3.8878055 h 17.79573 l 7.0683,-6.221062 c 8.11282,-7.140382 19.6027,-11.911707 31.7395,-13.180254 15.25161,-1.594109 34.6035,6.465881 44.17705,18.399576 l 4.31753,5.3819203 7.15711,-2.1200193 c 11.13324,-3.297789 29.0182,-3.666828 37.84164,-0.780828 15.5028,5.0707087 27.63281,17.3833873 29.80773,30.256605 2.58754,15.315512 -14.93732,32.33883 -39.59431,38.461163 -4.82745,1.198659 -7.54954,2.777662 -8.41972,4.884035 -1.04451,2.528393 -13.21589,59.790766 -13.21589,62.176486 0,0.37846 -26.22445,0.68812 -58.27655,0.68812 -32.0521,0 -58.27654,-0.18496 -58.27654,-0.41103 z m 19.11922,-11.32327 c 1.86324,-1.17856 1.68622,-3.80362 -1.31676,-19.525864 -4.23846,-22.190718 -5.15835,-24.803345 -8.73316,-24.803345 -5.72276,0 -5.99982,2.898502 -2.18427,22.850613 4.32779,22.630656 5.93951,25.460226 12.23419,21.478596 z m -47.18727,-91.405817 c 1.7491,-6.495662 8.61042,-13.2958262 16.3453,-16.1996254 11.28667,-4.23719461 11.9294,-4.6408091 11.44688,-7.1882288 -0.85543,-4.5161548 -9.37414,-4.0419047 -19.8265,1.10377545 -10.09425,4.96938255 -16.20053,11.49876475 -17.68227,18.90744675 -1.26424,6.321198 0.12036,9.143285 4.48597,9.143285 3.02805,0 3.95216,-1.018813 5.23062,-5.766653 z"
           id="path992"
           transform="matrix(0.26458333,0,0,0.26458333,63.840505,81.345853)" /></g><g
         id="g1007"
         transform="translate(0.84871213,-56.517308)"><g
           transform="matrix(0.15329925,0,0,-0.13204335,-65.910195,220.21656)"
           fill="#000000"
           stroke="none"
           id="g957"><path
             d="M 102,426 C 68,389 39,348 35,331 c -7,-35 1,-88 16,-97 17,-10 19,1 7,32 -6,17 -8,42 -5,56 8,31 84,128 101,128 8,0 18,-27 25,-70 13,-70 27,-90 33,-47 2,18 9,22 38,22 29,0 36,-4 38,-22 6,-43 20,-23 33,47 7,43 17,70 25,70 17,0 93,-97 101,-128 3,-14 1,-39 -5,-56 -12,-31 -10,-42 7,-32 18,12 24,75 10,109 -13,31 -115,147 -129,147 -4,0 -12,-26 -19,-57 l -11,-58 h -50 -50 l -11,58 c -7,31 -15,57 -19,57 -4,0 -35,-29 -68,-64 z"
             id="path949" /><path
             d="M 132,327 C 58,248 85,112 192,33 c 18,-12 35,-23 39,-23 4,0 6,18 4,40 -3,34 -1,40 15,40 16,0 18,-6 15,-40 -2,-22 0,-40 4,-40 4,0 21,11 39,23 87,65 123,167 88,250 -16,38 -51,73 -60,59 -3,-5 1,-16 10,-23 60,-49 56,-156 -9,-234 -22,-28 -32,-33 -38,-23 -5,7 -6,21 -3,31 5,15 -2,17 -46,17 -44,0 -51,-2 -46,-17 3,-10 2,-24 -3,-31 -11,-19 -64,46 -80,97 -20,69 -13,110 31,157 11,12 15,24 10,28 -5,3 -18,-5 -30,-17 z"
             id="path951" /><path
             d="m 133,214 c -8,-21 13,-42 28,-27 13,13 5,43 -11,43 -6,0 -13,-7 -17,-16 z"
             id="path953" /><path
             d="m 333,214 c -8,-21 13,-42 28,-27 13,13 5,43 -11,43 -6,0 -13,-7 -17,-16 z"
             id="path955" /></g></g><path
         style="fill:#ffffff;fill-opacity:1;stroke:#ffffff;stroke-width:1.47536;stroke-opacity:1"
         d="m -311.73353,281.1387 c -3.28753,-2.0318 -4.9179,-9.15841 -3.37421,-14.74919 2.53621,-9.18539 0.76193,-9.82526 -27.24448,-9.82526 -27.88915,0 -29.84655,0.68985 -27.28641,9.61655 1.73863,6.06223 -0.54639,14.72682 -3.88374,14.72682 -4.5274,0 -10.79668,-4.65166 -21.01286,-15.59105 -18.0155,-19.29081 -29.8816,-49.06529 -27.75722,-69.64856 0.98161,-9.51085 7.64672,-24.1136 14.46471,-31.69108 l 4.98595,-5.54134 61.03142,-0.0859 61.03142,-0.0859 3.57893,3.36223 c 1.96841,1.84923 5.68914,7.64867 8.26828,12.88766 4.08918,8.30629 4.76394,11.3822 5.27205,24.03298 0.50237,12.50768 0.057,16.18456 -3.23149,26.67275 -4.94233,15.76334 -12.51836,28.40677 -25.14353,41.96145 -10.50152,11.27467 -16.80894,15.74386 -19.69882,13.95781 z m -81.18394,-63.30253 c 3.70214,-4.216 4.35508,-8.68504 2.06847,-14.15767 -3.81893,-9.13997 -10.43238,-10.3353 -17.21826,-3.11206 -4.28034,4.55621 -4.63209,12.52942 -0.74237,16.82751 3.49093,3.85743 12.66893,4.11282 15.89216,0.44222 z m 116.21857,-0.36884 c 5.62481,-5.6248 2.29476,-19.38886 -5.14251,-21.25549 -4.56537,-1.14584 -8.37571,0.70844 -11.61514,5.65244 -3.265,4.98303 -3.04825,9.98287 0.63582,14.66641 3.83148,4.87094 11.72873,5.32975 16.12183,0.93664 z"
         id="path1026"
         transform="matrix(0.26458333,0,0,0.26458333,63.840505,81.345853)" /></g></g></svg>
