<svg id="visual" viewBox="0 0 900 600" width="900" height="600" xmlns="http://www.w3.org/2000/svg" xmlns:xlink="http://www.w3.org/1999/xlink" version="1.1"><g><g transform="translate(886 419)"><path d="M76.4 -93.3C97.2 -73.6 111 -47.8 114.3 -21.3C117.5 5.1 110.3 32.3 95.8 53.4C81.4 74.5 59.7 89.6 35.8 98.3C11.8 107 -14.5 109.4 -41.6 104C-68.8 98.6 -97 85.4 -109 63.5C-121 41.5 -116.9 10.8 -107.9 -15.4C-99 -41.6 -85.2 -63.3 -66.4 -83.4C-47.6 -103.5 -23.8 -121.9 2 -124.3C27.8 -126.7 55.6 -113.1 76.4 -93.3Z" fill="#f1c40f"></path></g><g transform="translate(335 421)"><path d="M68.6 -81.6C90.1 -63.8 109.4 -43.2 116.6 -18.2C123.9 6.9 119.1 36.4 104 57.5C88.8 78.6 63.3 91.2 36.7 100.8C10.1 110.5 -17.5 117.3 -41.3 110.1C-65.1 102.9 -85.1 81.8 -96.3 57.8C-107.5 33.8 -110 7 -104.5 -17.5C-99.1 -41.9 -85.6 -63.9 -66.8 -82.3C-48.1 -100.6 -24 -115.2 -0.2 -115C23.6 -114.7 47.2 -99.5 68.6 -81.6Z" fill="#f1c40f"></path></g><g transform="translate(190 119)"><path d="M62.6 -78.1C78.7 -61.1 87.7 -39.1 92.1 -16C96.5 7.1 96.3 31.3 85.7 49.1C75 66.8 53.7 78 31.2 86.7C8.6 95.3 -15.2 101.4 -34 94.2C-52.8 87 -66.4 66.6 -77 45.7C-87.5 24.8 -95 3.4 -92.6 -17.4C-90.3 -38.2 -78.1 -58.4 -61 -75.2C-43.9 -92 -22 -105.5 0.6 -106.2C23.2 -107 46.5 -95 62.6 -78.1Z" fill="#f1c40f"></path></g></g></svg>